<?xml version="1.0" encoding="UTF-8" standalone="no"?>
<svg
   xmlns:dc="http://purl.org/dc/elements/1.1/"
   xmlns:cc="http://creativecommons.org/ns#"
   xmlns:rdf="http://www.w3.org/1999/02/22-rdf-syntax-ns#"
   xmlns:svg="http://www.w3.org/2000/svg"
   xmlns="http://www.w3.org/2000/svg"
   width="100"
   height="100"
   viewBox="0 0 100 100"
   id="svg2"
   version="1.1">
  <path
     style="fill:#ffffff"
     d="M 50 0 C 22.426781 -1.01e-006 -3.6099996e-006 22.426778 0 50 C 8.8900004e-006 77.573213 22.42679 100 50 100 C 77.57321 100 99.999991 77.573213 100 50 C 100 22.426778 77.573219 -1.19e-006 50 0 z M 50 6.9257812 C 73.829839 6.9257804 93.074222 26.170157 93.074219 50 C 93.074211 73.829835 73.829831 93.072267 50 93.072266 C 26.170169 93.072266 6.9277421 73.829835 6.9277344 50 C 6.9277313 26.170158 26.170161 6.9257805 50 6.9257812 z M 31.615234 25.958984 L 25.958984 31.615234 L 44.34375 50 L 25.958984 68.384766 L 31.615234 74.041016 L 50 55.65625 L 68.384766 74.041016 L 74.041016 68.384766 L 55.65625 50 L 74.041016 31.615234 L 68.384766 25.958984 L 50 44.34375 L 31.615234 25.958984 z "
     id="path4159" />
</svg>
