<?xml version="1.0" encoding="UTF-8" standalone="no"?>
<svg
   xmlns:dc="http://purl.org/dc/elements/1.1/"
   xmlns:cc="http://creativecommons.org/ns#"
   xmlns:rdf="http://www.w3.org/1999/02/22-rdf-syntax-ns#"
   xmlns:svg="http://www.w3.org/2000/svg"
   xmlns="http://www.w3.org/2000/svg"
   width="100"
   height="100"
   viewBox="0 0 100 100"
   id="svg2"
   version="1.1">
  <path
     style="fill:#ffffff;"
     d="M 50,1.23e-6 C 22.426781,2.1999999e-7 -3.6099996e-6,22.426779 0,50.000001 8.8900004e-6,77.573214 22.42679,100 50,100 77.57321,100 99.999991,77.573214 100,50.000001 100,22.426779 77.573219,3.9999992e-8 50,1.23e-6 Z M 50,6.9257824 C 73.829839,6.9257815 93.074222,26.170158 93.074219,50.000001 93.074211,73.829836 73.829831,93.072268 50,93.072267 26.170169,93.072267 6.9277421,73.829836 6.9277344,50.000001 6.9277313,26.170159 26.170161,6.9257816 50,6.9257824 Z m -0.103516,7.5429686 c -3.572467,-2.44e-4 -6.467999,3.07801 -6.46875,6.875 -2.28e-4,3.797727 2.895588,6.877187 6.46875,6.876953 3.573164,2.34e-4 6.470929,-3.079226 6.470704,-6.876953 -7.5e-4,-3.79699 -2.898241,-6.875244 -6.470704,-6.875 z m -13.572265,19.517578 0,9.689453 7.292969,0 0,28.103516 -9.117188,0 0,9.689453 31,0 0,-9.689453 -9.117188,0 0,-37.792969 -20.058593,0 z"
     id="path4159" />
</svg>
