<?xml version="1.0" encoding="UTF-8" standalone="no"?>
<svg
   xmlns:dc="http://purl.org/dc/elements/1.1/"
   xmlns:cc="http://creativecommons.org/ns#"
   xmlns:rdf="http://www.w3.org/1999/02/22-rdf-syntax-ns#"
   xmlns:svg="http://www.w3.org/2000/svg"
   xmlns="http://www.w3.org/2000/svg"
   width="100"
   height="100"
   viewBox="0 0 100 100"
   id="svg2"
   version="1.1">

    <path
       id="path4178"
       d="M 49.994141 0 C 48.551057 0.0023579019 47.230307 0.82803219 46.574219 2.1386719 L 0.42578125 94.294922 C -0.87957137 96.904004 0.97719466 99.999304 3.8496094 100 L 96.150391 100 C 99.022803 99.999304 100.87957 96.904004 99.574219 94.294922 L 53.425781 2.1386719 C 52.767849 0.8243512 51.441279 -0.0019582548 49.994141 0 z M 50 13.748047 C 50.731223 13.742165 51.013672 14.5 51.013672 14.5 L 88.996094 90.414062 C 88.996094 90.414062 89.401725 91.198641 89.068359 91.738281 C 88.734995 92.277921 87.855469 92.15625 87.855469 92.15625 L 12.072266 92.15625 C 12.072266 92.15625 11.236606 92.271107 10.900391 91.726562 C 10.564175 91.182018 10.982422 90.458984 10.982422 90.458984 L 49.025391 14.5 C 49.025391 14.5 49.268777 13.753896 50 13.748047 z M 50.048828 27.199219 C 45.946528 27.200513 41.827179 30.909527 42.207031 38.322266 L 47.421875 66.609375 C 49.990393 76.907109 49.990296 76.907109 52.576172 66.609375 L 57.792969 38.322266 C 58.238151 30.904348 54.151128 27.197924 50.048828 27.199219 z M 49.990234 76.908203 C 46.223086 76.907976 43.17072 79.80547 43.169922 83.380859 C 43.169682 86.956945 46.222354 89.855696 49.990234 89.855469 C 53.758116 89.855696 56.812739 86.956945 56.8125 83.380859 C 56.811703 79.80547 53.757382 76.907976 49.990234 76.908203 z "
       style="fill:#000000;" />
  
</svg>
